<svg xmlns="http://www.w3.org/2000/svg" viewBox="0 0 720 430" fill="none">
  <defs>
    <linearGradient id="bgGlow" x1="0" y1="0" x2="720" y2="430" gradientUnits="userSpaceOnUse">
      <stop offset="0" stop-color="#0b0c10"/>
      <stop offset="0.55" stop-color="#08090a"/>
      <stop offset="1" stop-color="#0a0b12"/>
    </linearGradient>
    <radialGradient id="orbA" cx="0" cy="0" r="1" gradientUnits="userSpaceOnUse" gradientTransform="translate(612 74) rotate(90) scale(150 210)">
      <stop offset="0" stop-color="#8b8df0" stop-opacity="0.20"/>
      <stop offset="1" stop-color="#8b8df0" stop-opacity="0"/>
    </radialGradient>
    <radialGradient id="orbB" cx="0" cy="0" r="1" gradientUnits="userSpaceOnUse" gradientTransform="translate(108 388) rotate(90) scale(126 180)">
      <stop offset="0" stop-color="#61d4ff" stop-opacity="0.10"/>
      <stop offset="1" stop-color="#61d4ff" stop-opacity="0"/>
    </radialGradient>
    <linearGradient id="cardFill" x1="0" y1="0" x2="0" y2="1">
      <stop offset="0" stop-color="#12151b"/>
      <stop offset="1" stop-color="#0d0f14"/>
    </linearGradient>
    <linearGradient id="accentStroke" x1="0" y1="0" x2="1" y2="1">
      <stop offset="0" stop-color="#8b8df0" stop-opacity="0.85"/>
      <stop offset="1" stop-color="#61d4ff" stop-opacity="0.45"/>
    </linearGradient>
    <filter id="shadow" x="-20%" y="-20%" width="140%" height="140%">
      <feDropShadow dx="0" dy="10" stdDeviation="14" flood-color="#000000" flood-opacity="0.45"/>
    </filter>
    <marker id="arrow" markerWidth="10" markerHeight="10" refX="8" refY="5" orient="auto">
      <path d="M0 0L10 5L0 10Z" fill="#8b8df0"/>
    </marker>
    <marker id="arrowSoft" markerWidth="10" markerHeight="10" refX="8" refY="5" orient="auto">
      <path d="M0 0L10 5L0 10Z" fill="#7f8596"/>
    </marker>
  </defs>

  <rect x="0" y="0" width="720" height="430" fill="url(#bgGlow)"/>
  <rect x="0" y="0" width="720" height="430" fill="url(#orbA)"/>
  <rect x="0" y="0" width="720" height="430" fill="url(#orbB)"/>

  <g font-family="sans-serif">
    <text x="24" y="30" fill="#F5F7FB" font-size="24" font-weight="700">JobPrep OS</text>
    <text x="24" y="46" fill="#9AA3B5" font-size="10.5">Local-first interview operating system with scheduler-driven learning and deployable cloud mode</text>
    <rect x="24" y="18" width="132" height="2" rx="1" fill="#8b8df0" opacity="0.9"/>

    <g filter="url(#shadow)">
      <rect x="24" y="58" width="188" height="146" rx="18" fill="url(#cardFill)" stroke="url(#accentStroke)" stroke-width="1.2"/>
      <text x="40" y="82" fill="#F5F7FB" font-size="15" font-weight="700">Next.js 14 Frontend</text>
      <text x="40" y="97" fill="#9AA3B5" font-size="10">8-module app shell with recoverable local UI state</text>

      <rect x="40" y="112" width="72" height="18" rx="9" fill="#151A22" stroke="#2D3443"/>
      <rect x="124" y="112" width="72" height="18" rx="9" fill="#151A22" stroke="#2D3443"/>
      <rect x="40" y="136" width="72" height="18" rx="9" fill="#151A22" stroke="#2D3443"/>
      <rect x="124" y="136" width="72" height="18" rx="9" fill="#151A22" stroke="#2D3443"/>
      <rect x="40" y="160" width="72" height="18" rx="9" fill="#151A22" stroke="#2D3443"/>
      <rect x="124" y="160" width="72" height="18" rx="9" fill="#151A22" stroke="#2D3443"/>
      <rect x="40" y="184" width="72" height="18" rx="9" fill="#151A22" stroke="#2D3443"/>
      <rect x="124" y="184" width="72" height="18" rx="9" fill="#151A22" stroke="#2D3443"/>

      <text x="76" y="124" fill="#D8DDF0" font-size="9" text-anchor="middle">dashboard</text>
      <text x="160" y="124" fill="#D8DDF0" font-size="9" text-anchor="middle">jobs</text>
      <text x="76" y="148" fill="#D8DDF0" font-size="9" text-anchor="middle">arena</text>
      <text x="160" y="148" fill="#D8DDF0" font-size="9" text-anchor="middle">learn</text>
      <text x="76" y="172" fill="#D8DDF0" font-size="9" text-anchor="middle">memory</text>
      <text x="160" y="172" fill="#D8DDF0" font-size="9" text-anchor="middle">graph</text>
      <text x="76" y="196" fill="#D8DDF0" font-size="9" text-anchor="middle">ops</text>
      <text x="160" y="196" fill="#D8DDF0" font-size="9" text-anchor="middle">articles</text>
    </g>

    <g filter="url(#shadow)">
      <rect x="236" y="48" width="248" height="156" rx="18" fill="url(#cardFill)" stroke="url(#accentStroke)" stroke-width="1.2"/>
      <text x="252" y="72" fill="#F5F7FB" font-size="15" font-weight="700">FastAPI Backend</text>
      <text x="252" y="87" fill="#9AA3B5" font-size="10">150-route service core orchestrating jobs, learning, memory, and deploy mode</text>

      <rect x="252" y="100" width="216" height="24" rx="12" fill="#121821" stroke="#2B3342"/>
      <text x="264" y="116" fill="#DCE2F5" font-size="9.5">API surface</text>
      <text x="354" y="116" fill="#9AA3B5" font-size="9.5">REST + uploads + exports + diagnostics</text>

      <rect x="252" y="132" width="216" height="28" rx="12" fill="#121821" stroke="#2B3342"/>
      <text x="264" y="148" fill="#DCE2F5" font-size="9.5">Domain services</text>
      <text x="264" y="158" fill="#9AA3B5" font-size="8.8">planning · ingestion · learn workspace · SRS/FSRS · knowledge graph</text>

      <rect x="252" y="168" width="216" height="22" rx="11" fill="#121821" stroke="#2B3342"/>
      <text x="264" y="183" fill="#DCE2F5" font-size="9.5">Provider router</text>
      <text x="349" y="183" fill="#9AA3B5" font-size="9.2">Ollama default · OpenAI/Gemini optional · PhoneCloud bridge</text>
    </g>

    <g filter="url(#shadow)">
      <rect x="500" y="48" width="196" height="156" rx="18" fill="url(#cardFill)" stroke="url(#accentStroke)" stroke-width="1.2"/>
      <text x="516" y="72" fill="#F5F7FB" font-size="15" font-weight="700">Adaptive Runtime &amp; Storage</text>
      <text x="516" y="87" fill="#9AA3B5" font-size="10">Same product, local-first by default, cloud-capable when needed</text>

      <rect x="516" y="100" width="164" height="34" rx="13" fill="#11171F" stroke="#30384A"/>
      <text x="528" y="116" fill="#8b8df0" font-size="9.8" font-weight="700">Local mode</text>
      <text x="528" y="128" fill="#DCE2F5" font-size="9">SQLite + artifacts + exports on one machine</text>

      <rect x="516" y="144" width="164" height="42" rx="13" fill="#11171F" stroke="#30384A"/>
      <text x="528" y="160" fill="#61D4FF" font-size="9.8" font-weight="700">Remote mode</text>
      <text x="528" y="172" fill="#DCE2F5" font-size="9">API Gateway → EC2 Docker stack → PostgreSQL 15</text>
      <text x="528" y="183" fill="#9AA3B5" font-size="8.8">S3 stores artifacts, exports, and deploy-side state</text>
    </g>

    <path d="M212 124H236" stroke="#8b8df0" stroke-width="2" stroke-linecap="round" marker-end="url(#arrow)"/>
    <text x="224" y="116" fill="#8b8df0" font-size="8.5" text-anchor="middle">JSON</text>

    <path d="M484 124H500" stroke="#8b8df0" stroke-width="2" stroke-linecap="round" marker-end="url(#arrow)"/>
    <text x="492" y="116" fill="#8b8df0" font-size="8.5" text-anchor="middle">state</text>

    <path d="M360 204V220" stroke="#8b8df0" stroke-width="2.2" stroke-linecap="round" marker-end="url(#arrow)"/>
    <text x="372" y="216" fill="#8b8df0" font-size="8.5">APScheduler</text>

    <g filter="url(#shadow)">
      <rect x="24" y="220" width="672" height="50" rx="16" fill="#0F1218" stroke="#2C3340"/>
      <text x="40" y="240" fill="#F5F7FB" font-size="13" font-weight="700">Scheduler &amp; background jobs</text>

      <rect x="154" y="231" width="84" height="18" rx="9" fill="#171C25" stroke="#383F50"/>
      <rect x="246" y="231" width="84" height="18" rx="9" fill="#171C25" stroke="#383F50"/>
      <rect x="338" y="231" width="84" height="18" rx="9" fill="#171C25" stroke="#383F50"/>
      <rect x="430" y="231" width="84" height="18" rx="9" fill="#171C25" stroke="#383F50"/>
      <rect x="522" y="231" width="84" height="18" rx="9" fill="#171C25" stroke="#383F50"/>
      <rect x="614" y="231" width="66" height="18" rx="9" fill="#171C25" stroke="#383F50"/>

      <text x="196" y="243" fill="#DCE2F5" font-size="8.3" text-anchor="middle">ingestion_cycle</text>
      <text x="288" y="243" fill="#DCE2F5" font-size="8.3" text-anchor="middle">nightly_plan</text>
      <text x="380" y="243" fill="#DCE2F5" font-size="8.3" text-anchor="middle">daily_digest</text>
      <text x="472" y="243" fill="#DCE2F5" font-size="8.3" text-anchor="middle">nightly_quiz</text>
      <text x="564" y="243" fill="#DCE2F5" font-size="8.3" text-anchor="middle">weekly_adapt</text>
      <text x="647" y="243" fill="#DCE2F5" font-size="8.3" text-anchor="middle">batch</text>

      <text x="154" y="260" fill="#7F8799" font-size="8.1">jobs, plans, digests, quizzes, weekly retuning, and nightly analysis all come from the same orchestration spine</text>
    </g>

    <path d="M132 270V286" stroke="#7F8596" stroke-width="1.8" stroke-linecap="round" marker-end="url(#arrowSoft)"/>
    <path d="M380 270V286" stroke="#7F8596" stroke-width="1.8" stroke-linecap="round" marker-end="url(#arrowSoft)"/>
    <path d="M609 270V286" stroke="#7F8596" stroke-width="1.8" stroke-linecap="round" marker-end="url(#arrowSoft)"/>

    <g filter="url(#shadow)">
      <rect x="24" y="286" width="214" height="122" rx="18" fill="url(#cardFill)" stroke="#31384A"/>
      <text x="40" y="310" fill="#F5F7FB" font-size="14" font-weight="700">Ingestion pipeline</text>
      <text x="40" y="324" fill="#9AA3B5" font-size="10">Multiple source modes feed a single ranked job stream</text>

      <rect x="40" y="338" width="52" height="32" rx="10" fill="#151A22" stroke="#2F3646"/>
      <rect x="106" y="338" width="54" height="32" rx="10" fill="#151A22" stroke="#2F3646"/>
      <rect x="174" y="338" width="48" height="32" rx="10" fill="#151A22" stroke="#2F3646"/>

      <text x="66" y="351" fill="#DCE2F5" font-size="9" text-anchor="middle">Sources</text>
      <text x="66" y="362" fill="#9AA3B5" font-size="7.8" text-anchor="middle">RSS · HTML</text>

      <text x="133" y="351" fill="#DCE2F5" font-size="9" text-anchor="middle">Render</text>
      <text x="133" y="362" fill="#9AA3B5" font-size="7.8" text-anchor="middle">SPA + manual</text>

      <text x="198" y="351" fill="#DCE2F5" font-size="9" text-anchor="middle">Rank</text>
      <text x="198" y="362" fill="#9AA3B5" font-size="7.8" text-anchor="middle">normalize</text>

      <path d="M92 354H106" stroke="#8b8df0" stroke-width="1.8" marker-end="url(#arrow)"/>
      <path d="M160 354H174" stroke="#8b8df0" stroke-width="1.8" marker-end="url(#arrow)"/>

      <text x="40" y="388" fill="#8b8df0" font-size="9.2">Output</text>
      <text x="78" y="388" fill="#DCE2F5" font-size="9.2">jobs board + source diagnostics + follow-up planning signals</text>
    </g>

    <g filter="url(#shadow)">
      <rect x="252" y="286" width="256" height="122" rx="18" fill="url(#cardFill)" stroke="#31384A"/>
      <text x="268" y="310" fill="#F5F7FB" font-size="14" font-weight="700">Learn → drill → review pipeline</text>
      <text x="268" y="324" fill="#9AA3B5" font-size="10">Gated progression enriched by interleaving, interrogation, and constructionism</text>

      <rect x="268" y="338" width="56" height="34" rx="11" fill="#161B23" stroke="#364052"/>
      <rect x="352" y="338" width="56" height="34" rx="11" fill="#161B23" stroke="#364052"/>
      <rect x="436" y="338" width="56" height="34" rx="11" fill="#161B23" stroke="#364052"/>

      <text x="296" y="352" fill="#DCE2F5" font-size="10" text-anchor="middle">Learn</text>
      <text x="296" y="364" fill="#9AA3B5" font-size="8" text-anchor="middle">content ingest</text>

      <text x="380" y="352" fill="#DCE2F5" font-size="10" text-anchor="middle">Drill</text>
      <text x="380" y="364" fill="#9AA3B5" font-size="8" text-anchor="middle">graded attempt</text>

      <text x="464" y="352" fill="#DCE2F5" font-size="10" text-anchor="middle">Review</text>
      <text x="464" y="364" fill="#9AA3B5" font-size="8" text-anchor="middle">card promotion</text>

      <path d="M324 355H352" stroke="#8b8df0" stroke-width="2" marker-end="url(#arrow)"/>
      <path d="M408 355H436" stroke="#8b8df0" stroke-width="2" marker-end="url(#arrow)"/>

      <rect x="322" y="378" width="74" height="16" rx="8" fill="#11171F" stroke="#2E3648"/>
      <rect x="404" y="378" width="74" height="16" rx="8" fill="#11171F" stroke="#2E3648"/>
      <text x="359" y="389" fill="#DCE2F5" font-size="8.5" text-anchor="middle">knowledge ledger</text>
      <text x="441" y="389" fill="#DCE2F5" font-size="8.5" text-anchor="middle">knowledge graph</text>

      <path d="M464 372V378" stroke="#8b8df0" stroke-width="1.7"/>
      <path d="M464 378H478" stroke="#8b8df0" stroke-width="1.7"/>

      <text x="268" y="401" fill="#61D4FF" font-size="8.8">FSRS states</text>
      <text x="322" y="401" fill="#DCE2F5" font-size="8.8">new → learning → relearning → review</text>
    </g>

    <g filter="url(#shadow)">
      <rect x="522" y="286" width="174" height="122" rx="18" fill="url(#cardFill)" stroke="#31384A"/>
      <text x="538" y="310" fill="#F5F7FB" font-size="14" font-weight="700">LLM + deploy surface</text>
      <text x="538" y="324" fill="#9AA3B5" font-size="10">Local reasoning first, cloud path available</text>

      <rect x="538" y="338" width="142" height="18" rx="9" fill="#141922" stroke="#30384A"/>
      <text x="549" y="350" fill="#8b8df0" font-size="8.8" font-weight="700">Ollama default</text>
      <text x="620" y="350" fill="#DCE2F5" font-size="8.6">Qwen2.5 7B + DeepSeek Coder</text>

      <rect x="538" y="362" width="142" height="18" rx="9" fill="#141922" stroke="#30384A"/>
      <text x="549" y="374" fill="#61D4FF" font-size="8.8" font-weight="700">Optional providers</text>
      <text x="630" y="374" fill="#DCE2F5" font-size="8.6">OpenAI · Gemini</text>

      <text x="538" y="396" fill="#DCE2F5" font-size="9">Playwright smoke tests guard the app shell</text>
      <text x="538" y="406" fill="#9AA3B5" font-size="8.8">AWS CDK v2 provisions API Gateway, EC2, and S3 for remote mode</text>
    </g>

    <path d="M132 86C132 70 152 62 168 62" stroke="#8b8df0" stroke-opacity="0.18" stroke-width="1.2"/>
    <path d="M380 84C380 64 404 58 430 58" stroke="#61D4FF" stroke-opacity="0.16" stroke-width="1.2"/>
    <path d="M560 408C560 420 546 422 528 422" stroke="#8b8df0" stroke-opacity="0.12" stroke-width="1.2"/>
  </g>
</svg>
